<svg width="1115" height="1184" viewBox="0 0 1115 1184" fill="none" xmlns="http://www.w3.org/2000/svg">
<mask id="path-1-outside-1_114_124" maskUnits="userSpaceOnUse" x="0" y="-105" width="1120" height="1290" fill="black">
<rect fill="white" y="-105" width="1120" height="1290"/>
<path d="M1009.19 172.285C1016.98 164.479 1017 151.816 1008.94 144.303C935.954 76.3405 845.494 29.9113 747.556 10.3759C643.097 -10.4601 534.823 0.233746 436.425 41.1051C338.027 81.9764 253.925 151.19 194.754 239.992C135.582 328.795 104 433.198 104 540C104 646.802 135.583 751.205 194.754 840.008C253.925 928.811 338.027 998.024 436.425 1038.89C534.823 1079.77 643.097 1090.46 747.556 1069.62C845.495 1050.09 935.954 1003.66 1008.94 935.697C1017 928.184 1016.98 915.521 1009.19 907.715L656.583 554.122C648.799 546.317 648.799 533.684 656.583 525.878L1009.19 172.285Z"/>
</mask>
<path d="M1009.19 172.285C1016.98 164.479 1017 151.816 1008.94 144.303C935.954 76.3405 845.494 29.9113 747.556 10.3759C643.097 -10.4601 534.823 0.233746 436.425 41.1051C338.027 81.9764 253.925 151.19 194.754 239.992C135.582 328.795 104 433.198 104 540C104 646.802 135.583 751.205 194.754 840.008C253.925 928.811 338.027 998.024 436.425 1038.89C534.823 1079.77 643.097 1090.46 747.556 1069.62C845.495 1050.09 935.954 1003.66 1008.94 935.697C1017 928.184 1016.98 915.521 1009.19 907.715L656.583 554.122C648.799 546.317 648.799 533.684 656.583 525.878L1009.19 172.285Z" stroke="#14A856" stroke-width="208" mask="url(#path-1-outside-1_114_124)"/>
</svg>
